<?xml version="1.0" standalone="no"?>
<!DOCTYPE svg PUBLIC "-//W3C//DTD SVG 20010904//EN"
 "http://www.w3.org/TR/2001/REC-SVG-20010904/DTD/svg10.dtd">
<svg version="1.0" xmlns="http://www.w3.org/2000/svg"
 width="500.000000pt" height="500.000000pt" viewBox="0 0 500.000000 500.000000"
 preserveAspectRatio="xMidYMid meet">

<g transform="translate(0.000000,500.000000) scale(0.100000,-0.100000)"
fill="#000000" stroke="none">
<path d="M2733 4333 c-7 -2 -13 -20 -13 -39 l0 -34 -50 0 -50 0 0 -39 c0 -25
-5 -39 -12 -38 -7 0 -53 -1 -101 -1 l-88 -2 3 -42 3 -43 100 0 100 0 3 43 3
42 90 0 89 0 0 -46 0 -46 40 4 40 4 0 -88 c0 -49 0 -91 0 -95 -1 -5 -23 -7
-50 -6 l-50 2 0 -39 c0 -41 12 -52 27 -25 7 12 30 21 66 24 4 1 7 8 7 16 0 11
12 15 50 15 l50 0 0 -49 0 -50 -175 0 -175 0 0 99 0 100 -39 0 -40 0 -3 -52
-3 -53 -155 2 c-85 0 -145 -1 -133 -4 12 -2 22 -12 22 -21 0 -9 1 -26 3 -36 2
-16 -5 -22 -41 -29 -32 -6 -40 -12 -32 -20 6 -6 11 -23 11 -38 0 -24 -4 -27
-46 -33 -26 -3 -61 -6 -79 -6 -34 0 -45 -16 -45 -67 0 -19 -7 -22 -85 -28
l-85 -7 0 -44 0 -44 -45 0 -45 0 0 -51 0 -51 45 5 45 4 0 -49 0 -48 -45 0 -45
0 0 -44 0 -45 -47 -3 -48 -3 3 -39 c3 -25 -1 -42 -10 -47 -7 -5 -55 -9 -107
-9 -86 0 -92 -1 -80 -17 8 -9 13 -18 12 -20 -2 -1 -3 -37 -3 -78 l0 -75 95 0
95 0 0 50 0 50 44 0 45 0 3 48 3 47 88 3 87 3 0 44 0 45 145 0 145 0 0 45 0
45 59 0 60 0 3 48 3 47 80 1 80 1 3 47 3 46 38 0 38 0 7 50 7 49 122 3 122 3
0 43 c0 41 1 42 32 42 17 0 38 3 47 6 14 5 16 -7 16 -95 l0 -101 -51 0 -52 0
7 -126 c4 -69 9 -131 12 -138 2 -6 21 -13 41 -13 45 -1 55 -16 49 -72 -5 -55
2 -73 48 -134 20 -26 36 -58 36 -72 0 -21 -5 -24 -42 -27 -43 -3 -43 -3 -43
-43 l0 -40 -87 -3 -88 -3 0 -39 c0 -38 -1 -39 -37 -42 -37 -3 -38 -4 -35 -37
2 -20 -2 -37 -10 -42 -7 -5 28 -9 85 -9 l97 0 0 30 c0 28 2 30 40 30 39 0 40
1 40 35 0 33 2 35 34 35 28 0 35 4 38 23 2 17 10 22 33 23 17 1 60 3 98 4 40
2 67 8 67 14 0 6 5 4 10 -4 5 -8 10 -10 10 -4 0 17 43 26 52 11 6 -9 8 -9 8 1
0 9 5 10 18 3 10 -6 28 -8 39 -5 18 5 21 0 25 -36 5 -53 -2 -62 -46 -63 -36
-1 -36 -2 -36 -44 l0 -43 -90 0 -90 0 0 -45 c0 -48 -2 -49 -62 -45 -27 1 -28
-1 -28 -44 l0 -46 -45 0 -45 0 0 -45 0 -45 -40 0 -40 0 0 -50 0 -50 -42 -1
c-24 0 -37 -3 -30 -6 6 -2 12 -10 12 -18 0 -7 7 -18 15 -25 12 -10 15 -9 15 6
1 18 1 18 11 1 17 -29 3 -45 -38 -49 -36 -3 -38 -5 -41 -40 l-3 -38 -85 0 -84
0 0 -50 0 -50 -41 0 -41 0 2 -82 c3 -112 5 -106 -42 -110 -42 -3 -43 -4 -46
-40 l-3 -36 -85 -7 -84 -7 0 -93 c0 -98 6 -108 44 -76 14 12 16 10 16 -13 0
-16 4 -25 10 -21 6 3 11 1 11 -4 1 -6 2 -17 3 -23 4 -23 -16 -38 -50 -38 l-34
0 0 -175 c0 -168 1 -175 20 -175 21 0 38 -40 25 -59 -4 -7 -94 -11 -266 -11
l-259 0 0 -46 c0 -41 2 -45 23 -44 12 1 140 2 284 1 l262 -1 3 -42 c3 -42 4
-43 44 -48 l41 -5 2 -83 2 -82 -120 0 c-143 0 -171 -8 -171 -48 l0 -29 98 -6
c53 -4 136 -7 185 -7 l87 0 0 40 0 40 125 0 125 0 0 -75 0 -75 45 0 c45 0 45
0 45 35 0 35 0 35 45 35 l45 0 0 40 0 40 185 0 185 0 0 -40 0 -40 40 0 40 0 0
80 0 80 140 0 140 0 0 -35 c0 -33 2 -35 35 -35 37 0 42 9 29 58 -5 16 -14 22
-35 22 -27 0 -29 3 -29 40 l0 40 78 0 c75 0 105 8 101 26 -1 5 -1 19 0 32 1
19 6 22 46 22 l45 0 0 45 0 45 45 0 45 0 0 39 c0 40 0 40 43 43 41 3 42 4 45
41 3 36 4 37 43 37 24 0 39 5 39 13 1 6 4 48 7 92 13 151 13 150 -27 152 -19
1 -41 2 -47 2 -8 1 -13 16 -13 42 l0 41 -42 -4 -43 -3 -3 42 -3 43 -135 0
c-132 0 -134 0 -134 -22 0 -47 13 -53 105 -51 84 2 85 2 85 -23 0 -25 24 -34
33 -11 3 6 6 1 7 -13 l2 -25 12 29 c13 28 13 28 19 -25 4 -30 7 -69 7 -86 0
-32 -1 -33 -45 -33 l-45 0 0 45 0 45 -90 0 -90 0 0 -40 0 -40 -45 0 -45 0 0
-40 0 -40 -140 0 -140 0 0 -45 0 -45 -95 0 -95 0 0 45 c0 45 -9 53 -52 46 -5
0 -8 8 -8 18 0 11 -5 23 -11 27 -8 5 -10 -1 -7 -20 5 -26 4 -26 -49 -26 l-54
0 3 -46 3 -46 -43 -4 -43 -4 3 57 c2 47 6 57 19 55 9 -1 19 5 23 13 4 10 2 14
-5 9 -8 -4 -9 1 -4 16 11 36 8 92 -6 102 -9 5 -3 6 15 2 21 -5 27 -4 22 5 -10
16 -109 15 -103 -1 2 -7 12 -13 23 -13 24 -1 44 -13 44 -26 0 -6 -10 -7 -22
-4 -16 5 -20 4 -13 -3 6 -6 9 -32 7 -57 l-4 -45 -89 0 -89 0 0 39 c0 44 15 55
65 45 31 -5 33 -4 39 29 4 20 12 38 19 40 7 3 -18 6 -55 6 -38 1 -68 5 -68 11
0 6 -18 10 -40 10 l-41 0 3 131 c3 113 6 133 20 143 13 8 23 8 39 -2 19 -12
20 -11 14 7 -5 16 -2 19 15 16 17 -3 19 -1 10 16 -16 29 4 59 40 59 32 0 50
23 50 64 0 14 3 25 8 25 25 -4 41 3 36 15 -3 8 0 17 7 22 7 4 15 2 17 -4 2 -7
21 -12 42 -12 36 0 39 2 42 33 3 27 7 32 33 35 16 2 33 9 37 15 6 9 8 8 8 -1
0 -7 5 -10 10 -7 6 4 10 16 9 28 -4 40 1 57 15 57 8 0 18 4 21 10 3 6 -1 7 -9
4 -20 -8 -22 29 -3 43 17 14 58 23 51 12 -3 -5 0 -9 5 -9 6 0 11 4 11 9 0 6
19 11 43 13 38 3 42 6 45 31 3 23 8 27 36 27 40 0 57 18 49 50 -4 16 -1 27 12
36 11 8 14 14 8 14 -21 0 11 48 34 53 13 2 23 0 23 -4 0 -21 20 -6 26 19 4 15
11 32 16 38 11 15 58 15 59 0 1 -26 18 33 18 68 l1 38 45 -4 c53 -4 53 -3 57
102 3 57 5 65 23 66 71 4 65 -4 65 89 0 61 4 85 13 86 6 1 25 2 42 3 l29 1 -1
90 c-1 74 1 86 12 72 6 -9 16 -13 20 -9 4 4 2 -4 -5 -17 -10 -19 -10 -25 1
-32 16 -10 32 13 33 50 1 19 6 25 19 23 15 -3 17 8 17 108 l0 110 -59 0 -60 0
-3 38 c-3 32 -7 37 -30 40 -26 3 -28 6 -28 53 l0 49 39 0 c40 0 40 0 43 -42
l3 -43 47 -3 47 -3 3 94 c2 55 -1 98 -7 103 -5 5 -49 8 -97 6 l-87 -2 3 62 c2
35 1 75 -2 91 -4 25 -8 27 -48 27 l-44 0 0 -50 0 -51 -100 2 -100 1 0 49 0 48
-52 3 -53 3 0 40 0 40 58 3 57 3 0 -46 0 -46 93 3 92 3 3 43 3 42 -95 0 -96 0
0 50 0 50 -135 0 -135 0 0 45 0 45 -95 0 -95 0 0 40 0 39 -87 3 -88 3 1 48 1
47 -44 0 c-42 0 -43 1 -43 34 0 26 -5 35 -22 40 -26 7 -38 7 -55 -1z m277
-423 c0 -11 -2 -20 -4 -20 -2 0 -6 9 -9 20 -3 11 -1 20 4 20 5 0 9 -9 9 -20z
m248 -7 c9 -27 8 -28 -22 -30 -17 0 -25 1 -18 4 6 2 12 16 12 29 0 32 16 30
28 -3z m-98 -76 c0 -20 -1 -20 -16 -5 -9 9 -13 21 -9 27 10 16 25 3 25 -22z
m-90 -17 c0 -5 -5 -10 -11 -10 -5 0 -7 5 -4 10 3 6 8 10 11 10 2 0 4 -4 4 -10z
m-730 -195 l0 -95 -85 0 -85 0 0 50 0 50 35 0 c35 0 35 0 35 45 l0 45 50 0 50
0 0 -95z m688 59 c4 2 14 0 22 -6 12 -8 12 -9 -2 -4 -10 3 -18 2 -18 -3 0 -4
-6 -8 -12 -8 -7 0 -14 14 -15 31 -1 28 -1 29 8 8 5 -13 12 -21 17 -18z m34
-113 c2 -58 -1 -87 -7 -83 -5 3 -4 -1 3 -10 17 -21 3 -28 -26 -13 -14 8 -19
14 -11 17 8 3 13 32 14 89 1 49 -1 76 -6 64 -5 -14 -8 -16 -8 -4 -1 19 8 29
25 29 9 0 14 -26 16 -89z m-55 57 c-3 -8 -6 -5 -6 6 -1 11 2 17 5 13 3 -3 4
-12 1 -19z m801 -60 l3 -48 -45 0 -46 0 0 51 0 50 43 -3 42 -3 3 -47z m-812
-113 c-3 -9 -10 -13 -16 -10 -6 4 -5 11 3 20 15 16 22 11 13 -10z m827 -92
c21 2 23 -3 17 -50 -1 -13 -5 -10 -12 10 -9 24 -15 27 -56 28 -28 1 -37 4 -22
6 14 3 29 12 35 21 9 16 10 16 13 0 2 -11 11 -17 25 -15z m-60 10 c-7 -2 -19
-2 -25 0 -7 3 -2 5 12 5 14 0 19 -2 13 -5z m-783 -78 c0 -8 -7 -15 -15 -15
-16 0 -20 12 -8 23 11 12 23 8 23 -8z m870 -133 c-8 -15 -9 -15 -10 3 0 17 -2
17 -10 5 -7 -11 -10 -6 -10 21 0 48 11 56 27 18 9 -21 10 -36 3 -47z m-590
-604 c0 -5 -4 -8 -10 -8 -5 0 -10 10 -10 23 0 18 2 19 10 7 5 -8 10 -18 10
-22z m90 -220 c0 -26 -3 -28 -40 -28 -35 0 -40 3 -40 23 0 31 5 35 45 34 31
-1 35 -4 35 -29z m-180 -163 c0 -18 -5 -25 -20 -25 -24 0 -25 8 -3 32 21 23
23 23 23 -7z m-274 -282 c-10 -10 -19 5 -10 18 6 11 8 11 12 0 2 -7 1 -15 -2
-18z m1341 -549 c-3 -3 -12 -4 -19 -1 -8 3 -5 6 6 6 11 1 17 -2 13 -5z m-1032
-223 c-3 -6 -11 -11 -16 -11 -5 0 -4 6 3 14 14 16 24 13 13 -3z m48 -13 c-7
-37 -33 -46 -32 -10 0 23 2 24 8 7 7 -17 9 -16 15 9 9 35 16 31 9 -6z"/>
<path d="M2995 4330 c-7 -12 12 -12 40 0 18 8 17 9 -7 9 -15 1 -30 -3 -33 -9z"/>
<path d="M2310 4300 l0 -30 70 0 70 0 0 30 0 30 -70 0 -70 0 0 -30z m120 -10
c0 -5 -4 -10 -10 -10 -5 0 -10 5 -10 10 0 6 5 10 10 10 6 0 10 -4 10 -10z"/>
<path d="M1908 4215 l4 -45 -51 0 -51 0 0 -40 0 -40 85 0 86 0 -3 83 -3 82
-35 3 -35 3 3 -46z"/>
<path d="M3283 4253 c-22 -4 -23 -9 -23 -84 0 -43 4 -79 9 -79 5 0 7 9 4 20
-3 12 0 20 6 20 7 0 10 4 6 9 -3 5 -1 12 5 16 5 3 10 -2 11 -12 0 -16 1 -16 8
2 5 13 2 24 -10 35 -14 13 -15 19 -5 43 11 26 14 27 26 12 11 -13 11 -21 2
-35 -9 -14 -8 -19 4 -24 8 -3 14 -13 12 -22 -2 -9 4 -19 12 -21 13 -4 13 -3 0
6 -11 8 -3 11 35 11 28 0 57 5 65 10 10 6 -3 9 -43 7 -32 -2 -61 2 -64 7 -4 5
-7 26 -7 45 -1 37 -10 43 -53 34z"/>
<path d="M3300 4211 c-7 -15 -7 -21 0 -21 12 0 25 28 17 36 -3 3 -10 -4 -17
-15z"/>
<path d="M1453 4073 c9 -2 23 -2 30 0 6 3 -1 5 -18 5 -16 0 -22 -2 -12 -5z"/>
<path d="M1710 4036 c0 -44 0 -45 -37 -48 -38 -3 -38 -3 -41 -50 -3 -45 -5
-48 -32 -48 -27 0 -29 -3 -32 -42 l-3 -43 -72 -3 -73 -3 0 -90 0 -90 43 3 c42
3 42 3 45 46 3 39 5 42 32 42 27 0 29 3 32 48 l3 47 48 3 47 3 0 45 0 44 70 0
70 0 0 90 0 90 -50 0 -50 0 0 -44z"/>
<path d="M2110 4035 l0 -45 -60 0 -60 0 0 -45 0 -45 85 0 85 0 0 50 0 50 50 1
c28 1 55 3 60 4 6 1 15 3 20 4 6 0 10 17 10 36 l0 35 -95 0 -95 0 0 -45z"/>
<path d="M3545 4071 c-3 -6 -4 -22 -3 -38 2 -25 6 -28 39 -29 36 -2 37 -1 41
37 l4 39 -38 0 c-20 0 -39 -4 -43 -9z"/>
<path d="M1353 3971 c1 -15 4 -17 14 -9 17 14 16 28 -1 28 -8 0 -14 -9 -13
-19z"/>
<path d="M3720 3943 c0 -35 3 -44 10 -33 5 8 10 10 10 5 0 -18 37 -12 49 7 8
14 8 18 -1 18 -9 0 -9 3 0 12 24 24 13 38 -28 38 l-40 0 0 -47z m54 -11 c3 -5
-1 -9 -9 -9 -8 0 -12 4 -9 9 3 4 7 8 9 8 2 0 6 -4 9 -8z"/>
<path d="M1878 3893 l-58 -4 0 -39 0 -40 80 0 80 0 0 45 c0 41 -2 45 -22 43
-13 -1 -49 -3 -80 -5z"/>
<path d="M1234 3878 c-4 -7 -9 -33 -10 -57 -2 -29 0 -40 6 -31 5 8 24 15 42
16 18 1 41 2 51 3 15 1 18 8 15 39 -3 37 -4 37 -50 40 -29 2 -49 -2 -54 -10z"/>
<path d="M3811 3848 l2 -43 6 35 c5 28 10 35 28 34 13 -1 20 3 17 7 -3 5 -16
9 -30 9 -22 0 -24 -4 -23 -42z"/>
<path d="M1220 3759 c0 -5 5 -7 10 -4 6 3 10 8 10 11 0 2 -4 4 -10 4 -5 0 -10
-5 -10 -11z"/>
<path d="M3844 3709 c-4 -7 -3 -9 4 -5 6 3 16 -3 22 -14 9 -17 14 -19 33 -8
19 10 20 9 10 -4 -7 -8 -10 -18 -6 -22 4 -4 -1 -4 -12 0 -12 4 -17 3 -12 -2
10 -10 67 -13 61 -3 -2 4 3 10 12 13 9 3 12 11 8 18 -4 7 -3 9 1 5 13 -11 15
-38 3 -31 -7 4 -8 2 -4 -5 11 -17 26 -3 26 25 0 22 -4 24 -45 24 -28 0 -45 4
-45 12 0 9 -3 9 -12 0 -8 -8 -15 -8 -24 -1 -8 7 -14 6 -20 -2z"/>
<path d="M1738 3703 l-38 -4 0 -61 0 -62 20 22 c12 12 25 22 30 22 6 0 10 9
10 20 0 12 7 20 18 21 13 0 12 2 -5 9 -13 5 -23 12 -23 14 0 3 7 3 15 0 9 -4
15 0 15 10 0 9 -1 15 -2 14 -2 -1 -20 -3 -40 -5z"/>
<path d="M1770 3635 c0 -8 4 -15 10 -15 5 0 7 7 4 15 -4 8 -8 15 -10 15 -2 0
-4 -7 -4 -15z"/>
<path d="M1337 3514 c-3 -3 -3 -21 0 -40 l6 -34 -42 0 -41 0 0 -55 0 -55 45 0
45 0 0 50 0 50 35 0 c35 0 35 0 35 45 l0 45 -38 0 c-21 0 -41 -3 -45 -6z"/>
<path d="M1629 3435 c-5 -4 -39 -12 -61 -14 -5 -1 -8 -21 -8 -46 l0 -45 -60 0
-60 0 0 -45 0 -45 89 0 90 0 3 48 3 47 43 3 42 3 0 50 0 49 -38 0 c-21 0 -41
-2 -43 -5z"/>
<path d="M1171 3383 c1 -53 6 -49 11 10 2 20 0 37 -4 37 -4 0 -8 -21 -7 -47z"/>
<path d="M2718 3422 c-31 -2 -61 -9 -67 -16 -7 -8 -11 -64 -12 -140 l0 -126
-35 0 c-36 0 -37 -3 -34 -57 1 -32 1 -33 -40 -33 -47 0 -46 -14 2 -25 63 -14
68 -15 68 -5 0 5 6 7 14 4 8 -3 16 3 19 15 4 17 13 21 46 21 l41 0 0 90 c0 73
-3 90 -15 90 -8 0 -15 5 -15 11 0 5 -4 8 -9 4 -5 -3 -13 0 -17 6 -4 7 -3 9 3
6 6 -4 13 2 16 14 5 17 3 18 -10 7 -15 -12 -15 -11 -2 9 7 12 15 21 17 19 6
-7 62 49 62 62 0 7 5 10 12 6 7 -5 9 -2 5 9 -4 11 -2 14 9 10 14 -5 21 13 7
19 -5 2 -34 2 -65 0z"/>
<path d="M1007 3323 c-11 -17 -7 -206 4 -220 7 -7 9 -16 6 -20 -4 -3 -2 -14 3
-24 12 -22 1 -146 -11 -127 -6 9 -9 6 -9 -11 0 -18 4 -22 20 -18 10 3 19 2 18
-2 -2 -20 5 -26 32 -27 37 -1 46 -9 32 -27 -6 -7 -9 -22 -7 -32 2 -11 4 -26 4
-33 1 -8 11 -12 28 -10 25 3 28 8 30 43 2 22 5 48 7 57 2 10 0 20 -4 23 -5 3
-7 17 -4 30 4 23 2 25 -38 25 l-43 0 3 107 c4 122 -1 155 -23 147 -11 -5 -16
-25 -17 -78 l-2 -71 -3 67 c-2 37 1 76 7 87 8 16 7 22 -7 29 -14 9 -14 10 5
16 15 5 22 16 22 32 0 13 5 24 10 24 6 0 10 4 10 8 0 11 -67 15 -73 5z m63
-267 c0 -14 -5 -28 -11 -31 -15 -10 -18 -4 -12 28 7 34 23 36 23 3z m0 -76 c0
-5 -5 -10 -11 -10 -5 0 -7 5 -4 10 3 6 8 10 11 10 2 0 4 -4 4 -10z m8 -63 c2
-19 -1 -27 -12 -27 -9 0 -16 7 -16 15 0 8 -6 15 -12 16 -10 0 -10 2 0 6 6 2 9
9 6 15 -4 6 2 8 12 6 12 -2 20 -13 22 -31z m53 -90 c-10 -9 -11 -8 -5 6 3 10
9 15 12 12 3 -3 0 -11 -7 -18z"/>
<path d="M2400 3290 c0 -46 0 -46 93 -54 l67 -5 0 49 0 50 -80 0 -80 0 0 -40z"/>
<path d="M2810 3195 l0 -45 39 0 39 0 4 45 3 45 -42 0 -43 0 0 -45z"/>
<path d="M2150 3104 l0 -45 38 3 c36 3 37 4 40 46 l3 42 -40 0 -41 0 0 -46z"/>
<path d="M3980 3085 c0 -8 4 -15 10 -15 5 0 7 7 4 15 -4 8 -8 15 -10 15 -2 0
-4 -7 -4 -15z"/>
<path d="M2073 3009 c6 -43 19 -59 50 -59 11 0 17 8 18 23 1 12 2 34 3 50 2
25 -1 27 -37 27 l-40 0 6 -41z"/>
<path d="M2553 2973 c9 -2 23 -2 30 0 6 3 -1 5 -18 5 -16 0 -22 -2 -12 -5z"/>
<path d="M1900 2911 c0 -30 4 -40 20 -44 30 -8 49 13 43 51 -5 27 -9 32 -34
32 -27 0 -29 -3 -29 -39z"/>
<path d="M3910 2905 c0 -2 6 -8 13 -14 10 -8 14 -7 14 2 0 8 -6 14 -14 14 -7
0 -13 -1 -13 -2z"/>
<path d="M3980 2898 c0 -9 -6 -19 -12 -21 -10 -4 -10 -6 0 -6 14 -1 28 26 18
36 -3 4 -6 -1 -6 -9z"/>
<path d="M1570 2856 c0 -2 11 -6 25 -8 13 -3 22 -1 19 3 -5 9 -44 13 -44 5z"/>
<path d="M1436 2765 c-3 -9 -6 -34 -6 -56 0 -32 -3 -39 -20 -39 -17 0 -20 -7
-20 -45 0 -41 -2 -45 -25 -45 -23 0 -25 4 -25 45 0 42 -1 45 -27 44 -59 -3
-66 -8 -60 -46 9 -51 0 -63 -44 -63 l-39 0 0 -84 c0 -74 -2 -85 -19 -91 -10
-3 -23 -5 -27 -4 -34 6 -37 -1 -31 -71 7 -82 13 -95 47 -95 l25 0 3 -137 3
-138 -35 0 -35 0 -3 -57 c-3 -56 -4 -58 -33 -63 -16 -3 -49 -3 -72 1 l-42 6
-3 -41 -3 -41 -88 -3 -88 -3 2 -37 c3 -41 -6 -63 -24 -61 -7 1 -24 1 -39 0
-25 -1 -28 -5 -28 -36 l0 -35 85 0 85 0 0 34 c0 19 5 38 11 41 6 4 69 6 140 6
l129 -2 0 44 c0 52 8 57 81 57 l50 0 -1 271 c-1 149 1 274 5 277 3 3 20 6 38
6 30 1 32 3 37 46 l5 45 40 0 40 0 0 52 c-1 42 3 52 15 50 11 -1 14 5 12 25
-5 42 2 46 65 36 54 -8 59 -7 76 14 12 14 18 17 17 8 -4 -26 0 -40 11 -40 6 0
8 9 4 21 -5 15 -4 19 4 15 7 -5 11 6 11 31 0 42 -5 45 -82 46 l-38 1 0 46 c0
56 -7 66 -46 74 -24 5 -33 3 -38 -9z"/>
<path d="M1800 2740 c0 -19 3 -21 12 -12 9 9 9 15 0 24 -9 9 -12 7 -12 -12z"/>
<path d="M3917 2629 c8 -8 22 -8 50 -1 l38 10 -49 1 c-37 1 -47 -2 -39 -10z"/>
<path d="M1647 2563 c-3 -4 31 -9 74 -10 43 -1 79 2 79 6 0 11 -147 14 -153 4z"/>
<path d="M3895 2540 c-3 -5 -24 -10 -46 -10 -39 0 -40 -1 -37 -32 3 -31 6 -33
48 -38 45 -5 45 -5 48 -47 l3 -43 85 0 85 0 -3 48 -3 47 -37 -3 -38 -4 0 46 0
46 -49 0 c-28 0 -53 -4 -56 -10z"/>
<path d="M4183 2444 c-2 -7 -3 -25 -1 -41 3 -26 7 -28 43 -28 39 0 40 1 43 37
3 35 5 37 45 41 23 2 4 3 -42 3 -55 0 -85 -4 -88 -12z"/>
<path d="M4088 2348 c-2 -7 -4 -24 -4 -38 1 -22 6 -25 44 -28 l42 -3 0 40 c0
41 0 41 -39 41 -22 0 -41 -5 -43 -12z"/>
<path d="M4180 2145 l0 -45 -50 0 -50 0 0 -45 0 -45 -46 0 -46 0 4 45 3 45
-47 0 -48 0 0 40 0 40 -40 0 -40 0 0 -40 0 -40 40 0 40 0 0 -44 c0 -44 0 -44
-40 -51 -21 -4 -56 -6 -77 -5 -62 3 -63 2 -63 -35 l0 -35 53 -1 c126 -2 218
-3 305 -1 l92 2 0 39 c0 38 0 39 48 47 l47 9 6 75 c3 41 4 78 2 83 -2 4 -24 7
-49 7 l-44 0 0 -45z"/>
<path d="M3463 2093 c-8 -2 -13 -22 -13 -44 0 -39 0 -39 40 -39 40 0 40 0 40
39 0 46 -24 62 -67 44z"/>
<path d="M3630 2090 c0 -5 10 -9 23 -8 12 0 28 -1 36 -3 7 -2 16 2 18 9 3 8
-8 12 -36 12 -23 0 -41 -4 -41 -10z"/>
<path d="M3631 2054 c0 -11 3 -14 6 -6 3 7 2 16 -1 19 -3 4 -6 -2 -5 -13z"/>
<path d="M3360 1960 l0 -40 40 0 40 0 0 40 0 40 -40 0 -40 0 0 -40z"/>
<path d="M3548 1993 c7 -3 16 -2 19 1 4 3 -2 6 -13 5 -11 0 -14 -3 -6 -6z"/>
<path d="M3185 1908 c-3 -7 -4 -67 -2 -133 l2 -120 44 -3 44 -3 -6 -125 -7
-124 45 0 45 0 1 -37 c1 -21 3 -30 6 -20 2 9 9 14 15 11 7 -5 9 4 6 24 -3 25
0 32 16 36 16 5 18 8 7 15 -9 6 -4 10 18 13 23 3 32 0 37 -14 7 -24 24 -23 24
2 0 11 5 20 10 20 6 0 10 -5 10 -11 0 -6 9 -8 20 -4 14 5 20 2 20 -9 0 -9 7
-16 15 -16 8 0 15 5 15 10 0 6 -5 10 -12 10 -6 0 -1 8 10 19 12 10 22 25 22
32 1 10 5 8 15 -5 11 -14 15 -16 15 -5 0 11 17 13 95 11 l95 -3 0 40 0 41 -95
0 -95 0 0 45 0 45 -135 0 -135 0 0 45 0 45 -49 0 c-44 0 -49 2 -46 20 2 11 -2
20 -8 20 -8 0 -8 3 1 9 9 5 12 26 10 67 -3 59 -3 59 -36 62 -20 2 -34 -2 -37
-10z m261 -372 c12 -49 2 -61 -46 -61 l-45 0 -3 43 -3 42 45 0 c40 0 46 -3 52
-24z m101 -82 c-3 -3 -12 -4 -19 -1 -8 3 -5 6 6 6 11 1 17 -2 13 -5z"/>
<path d="M3460 1905 c-8 -9 -8 -15 -2 -15 12 0 26 19 19 26 -2 2 -10 -2 -17
-11z"/>
<path d="M3515 1844 c-6 -2 -44 -8 -85 -13 -64 -7 -68 -9 -27 -10 27 0 46 -5
42 -10 -3 -5 -1 -12 5 -16 5 -3 10 -17 10 -31 0 -23 2 -24 74 -24 81 0 90 -5
91 -55 0 -29 2 -30 47 -33 l47 -3 3 43 c3 43 3 43 46 46 42 3 42 4 42 42 0 25
-5 40 -15 44 -9 3 -69 5 -135 3 -91 -1 -120 1 -120 11 0 12 -7 14 -25 6z"/>
<path d="M3912 1822 c-7 -2 -12 -19 -12 -38 0 -33 1 -34 40 -34 39 0 40 1 40
34 0 29 -4 34 -28 38 -16 2 -34 2 -40 0z"/>
<path d="M2742 1740 c0 -14 2 -19 5 -12 2 6 2 18 0 25 -3 6 -5 1 -5 -13z"/>
<path d="M1658 1673 c7 -3 16 -2 19 1 4 3 -2 6 -13 5 -11 0 -14 -3 -6 -6z"/>
<path d="M2341 1574 c0 -11 3 -14 6 -6 3 7 2 16 -1 19 -3 4 -6 -2 -5 -13z"/>
<path d="M580 1532 c0 -35 16 -52 51 -52 28 0 39 15 39 56 0 22 -4 24 -45 24
-43 0 -45 -1 -45 -28z"/>
<path d="M938 1518 c-3 -42 -4 -43 -40 -46 -36 -3 -38 -5 -38 -38 l0 -34 75 0
c41 0 78 0 83 0 9 0 15 106 7 137 -4 19 -12 23 -45 23 -39 0 -39 0 -42 -42z"/>
<path d="M3088 1473 c6 -2 18 -2 25 0 6 3 1 5 -13 5 -14 0 -19 -2 -12 -5z"/>
<path d="M3193 1473 c9 -2 23 -2 30 0 6 3 -1 5 -18 5 -16 0 -22 -2 -12 -5z"/>
<path d="M1645 1389 c-4 -5 -4 -21 -1 -35 6 -21 12 -25 39 -22 28 3 32 7 35
36 3 26 0 32 -17 32 -10 0 -22 -6 -24 -12 -4 -10 -6 -10 -6 0 -1 15 -17 16
-26 1z"/>
<path d="M777 1383 c-4 -3 -7 -19 -7 -35 0 -27 2 -29 40 -26 39 2 40 3 38 35
-2 30 -5 33 -33 33 -18 0 -35 -3 -38 -7z"/>
<path d="M3052 1340 c-10 -17 -10 -20 3 -20 8 0 15 9 15 20 0 11 -1 20 -3 20
-1 0 -8 -9 -15 -20z"/>
<path d="M690 1230 c0 -79 0 -80 28 -86 49 -11 52 -13 52 -49 0 -34 1 -35 40
-35 40 0 40 0 40 39 0 40 0 40 -42 43 l-43 3 -3 83 -3 82 -34 0 -35 0 0 -80z"/>
<path d="M994 1046 c-3 -8 -4 -29 -2 -48 3 -30 6 -33 41 -36 l37 -3 0 50 0 51
-35 0 c-21 0 -38 -6 -41 -14z"/>
<path d="M852 513 c3 -37 4 -38 43 -38 39 0 40 1 40 35 0 34 -1 35 -43 38
l-43 3 3 -38z"/>
</g>
</svg>
